<?xml version="1.0" encoding="UTF-8" standalone="no"?>
<!-- Created with Inkscape (http://www.inkscape.org/) -->

<svg
   xmlns:dc="http://purl.org/dc/elements/1.1/"
   xmlns:cc="http://creativecommons.org/ns#"
   xmlns:rdf="http://www.w3.org/1999/02/22-rdf-syntax-ns#"
   xmlns:svg="http://www.w3.org/2000/svg"
   xmlns="http://www.w3.org/2000/svg"
   xmlns:sodipodi="http://sodipodi.sourceforge.net/DTD/sodipodi-0.dtd"
   xmlns:inkscape="http://www.inkscape.org/namespaces/inkscape"
   width="508.96262"
   height="79.435051"
   id="svg3519"
   version="1.1"
   inkscape:version="0.48.2 r9819"
   sodipodi:docname="New document 3">
  <defs
     id="defs3521" />
  <sodipodi:namedview
     id="base"
     pagecolor="#ffffff"
     bordercolor="#666666"
     borderopacity="1.0"
     inkscape:pageopacity="0.0"
     inkscape:pageshadow="2"
     inkscape:zoom="1.4"
     inkscape:cx="298.41243"
     inkscape:cy="84.199234"
     inkscape:document-units="px"
     inkscape:current-layer="layer1"
     showgrid="false"
     fit-margin-top="0"
     fit-margin-left="0"
     fit-margin-right="0"
     fit-margin-bottom="0"
     inkscape:window-width="1183"
     inkscape:window-height="841"
     inkscape:window-x="258"
     inkscape:window-y="82"
     inkscape:window-maximized="0" />
  <metadata
     id="metadata3524">
    <rdf:RDF>
      <cc:Work
         rdf:about="">
        <dc:format>image/svg+xml</dc:format>
        <dc:type
           rdf:resource="http://purl.org/dc/dcmitype/StillImage" />
        <dc:title></dc:title>
      </cc:Work>
    </rdf:RDF>
  </metadata>
  <g
     inkscape:label="Layer 1"
     inkscape:groupmode="layer"
     id="layer1"
     transform="translate(-22.65625,-135.5)">
    <g
       style="font-size:67.21839142px;font-style:normal;font-variant:normal;font-weight:normal;font-stretch:normal;text-align:start;line-height:125%;letter-spacing:0px;word-spacing:0px;writing-mode:lr-tb;text-anchor:start;fill:#000000;fill-opacity:1;stroke:none;font-family:Oxygen;-inkscape-font-specification:Oxygen"
       id="text9567">
      <path
         d="m 125.64998,154.8061 c -5.7766,5e-5 -10.18015,1.84352 -13.21065,5.53042 -3.03052,3.68698 -4.54578,8.7032 -4.54577,15.04865 -10e-6,2.88831 0.35555,5.53591 1.0667,7.9428 0.71112,2.40692 1.76687,4.54032 3.16727,6.40019 1.40037,1.85989 3.25478,3.3095 5.56324,4.34884 2.30842,1.03936 4.96149,1.55903 7.95921,1.55902 2.40688,1e-5 4.59497,-0.34462 6.56429,-1.03387 1.96926,-0.68925 3.63768,-1.6356 5.00528,-2.83906 1.36752,-1.20345 2.51627,-2.65853 3.44626,-4.36526 0.92989,-1.7067 1.61367,-3.56111 2.05134,-5.56324 0.43757,-2.00209 0.65638,-4.15189 0.65643,-6.44942 -5e-5,-4.13548 -0.64554,-7.72943 -1.93647,-10.78186 -1.29102,-3.05235 -3.27672,-5.44832 -5.9571,-7.1879 -2.68045,-1.73949 -5.95713,-2.60926 -9.83003,-2.60931 z m 10.35518,43.89873 c -3.05244,1.28004 -6.50416,1.92006 -10.35518,1.92006 -3.85108,0 -7.30827,-0.64002 -10.37159,-1.92006 -3.06335,-1.28003 -5.57966,-3.05239 -7.54894,-5.31708 -1.9693,-2.26467 -3.46814,-4.92321 -4.49654,-7.97562 -1.02841,-3.05238 -1.54262,-6.39469 -1.54261,-10.02696 -10e-6,-7.74584 2.12245,-13.94362 6.36737,-18.59337 4.24489,-4.64966 10.10899,-6.97451 17.59231,-6.97456 7.48326,5e-5 13.34189,2.3249 17.5759,6.97456 4.23392,4.64975 6.35091,10.84753 6.35096,18.59337 -5e-5,3.63227 -0.51426,6.97458 -1.54261,10.02696 -1.02846,3.05241 -2.5273,5.71095 -4.49654,7.97562 -1.96934,2.26469 -4.48018,4.03705 -7.53253,5.31708 z"
         style="font-style:normal;font-variant:normal;font-weight:normal;font-stretch:normal;fill:#616161;fill-opacity:1;font-family:Oxygen;-inkscape-font-specification:Oxygen"
         id="path3545" />
      <path
         d="m 162.24593,181.88382 c -10e-6,1.99119 0.19692,3.81825 0.59079,5.48119 0.39384,1.66297 0.9901,3.15087 1.78877,4.46372 0.79864,1.31287 1.88175,2.3358 3.24932,3.06881 1.36755,0.73302 2.95939,1.09952 4.77553,1.09952 1.79422,0 3.38059,-0.4212 4.75911,-1.26363 1.37848,-0.84241 2.45065,-1.96381 3.21651,-3.3642 0.7658,-1.40037 1.33471,-2.89922 1.70671,-4.49654 0.37195,-1.5973 0.55794,-3.26025 0.55797,-4.98887 -3e-5,-1.3566 -0.10944,-2.68587 -0.32821,-3.98781 -0.21884,-1.30189 -0.59082,-2.58193 -1.11594,-3.84011 -0.52517,-1.25813 -1.17066,-2.35765 -1.93646,-3.29856 -0.76586,-0.94085 -1.73957,-1.69574 -2.92111,-2.26468 -1.1816,-0.56887 -2.49446,-0.85333 -3.93858,-0.85336 -1.81614,3e-5 -3.40798,0.37201 -4.77553,1.11593 -1.36757,0.74399 -2.45068,1.77786 -3.24932,3.10163 -0.79867,1.32383 -1.39493,2.82267 -1.78877,4.49654 -0.39387,1.67392 -0.5908,3.51739 -0.59079,5.53042 z m -5.41555,33.05123 0,-51.10304 5.1858,0 0.32821,4.82476 c 2.82264,-3.78538 6.53146,-5.67808 11.12649,-5.67812 2.58193,4e-5 4.85755,0.50877 6.82686,1.5262 1.96926,1.0175 3.54469,2.42335 4.7263,4.21756 1.18154,1.79427 2.06772,3.8292 2.65854,6.1048 0.59075,2.27564 0.88614,4.74819 0.88618,7.41765 -4e-5,2.45069 -0.35014,4.78648 -1.05029,7.00739 -0.70023,2.22092 -1.68487,4.17927 -2.95393,5.87504 -1.26913,1.69578 -2.86644,3.04693 -4.79194,4.05345 -1.92555,1.00653 -4.02613,1.50979 -6.30172,1.50979 -4.98889,0 -8.69771,-2.02399 -11.12649,-6.07197 l 0,19.59442 z"
         style="font-style:normal;font-variant:normal;font-weight:normal;font-stretch:normal;fill:#616161;fill-opacity:1;font-family:Oxygen;-inkscape-font-specification:Oxygen"
         id="path3547" />
      <path
         d="m 210.23093,200.69053 c -5.12016,0 -9.1572,-1.69577 -12.11112,-5.08733 -2.95394,-3.39154 -4.43091,-7.99749 -4.4309,-13.81784 -1e-5,-5.3827 1.47696,-9.83001 4.4309,-13.34193 2.95392,-3.51187 6.77215,-5.33346 11.45469,-5.46478 4.4637,4e-5 7.99201,1.56453 10.58493,4.69347 2.59286,3.12901 3.88931,7.36298 3.88934,12.70192 -3e-5,0.17506 -0.011,0.57439 -0.0328,1.19798 -0.0219,0.62363 -0.0328,1.04483 -0.0328,1.26363 l -24.64893,0 c -1e-5,3.98235 1.03934,7.16603 3.11804,9.55105 2.07868,2.38503 4.72628,3.57754 7.9428,3.57754 4.06984,0 7.87713,-1.20345 11.42187,-3.61036 l 1.70672,4.00422 c -3.3697,2.88829 -7.8006,4.33243 -13.2927,4.33243 z m -10.6998,-21.66217 19.20056,0 c -2e-5,-3.71975 -0.84244,-6.58068 -2.52725,-8.58282 -1.68486,-2.00208 -3.90578,-3.00313 -6.66276,-3.00317 -2.73514,4e-5 -5.01076,1.04485 -6.82687,3.13445 -1.81613,2.08967 -2.87736,4.90684 -3.18368,8.45154 z"
         style="font-style:normal;font-variant:normal;font-weight:normal;font-stretch:normal;fill:#616161;fill-opacity:1;font-family:Oxygen;-inkscape-font-specification:Oxygen"
         id="path3549" />
      <path
         d="m 248.40231,162.97865 c 3.89479,4e-5 6.7612,1.2746 8.59923,3.8237 1.83797,2.54917 2.75697,6.38381 2.757,11.50393 l 0,21.56372 -5.514,0 0,-18.08464 c -3e-5,-1.55353 -0.011,-2.80622 -0.0328,-3.75806 -0.0219,-0.9518 -0.0821,-1.98568 -0.18051,-3.10163 -0.0985,-1.1159 -0.24619,-1.99661 -0.44309,-2.64213 -0.19696,-0.64546 -0.465,-1.29642 -0.80413,-1.95288 -0.33918,-0.6564 -0.76039,-1.15419 -1.26363,-1.49337 -0.50328,-0.33913 -1.11048,-0.61264 -1.82159,-0.82054 -0.71115,-0.20784 -1.53716,-0.31177 -2.47802,-0.31181 -2.84455,4e-5 -5.31163,0.70023 -7.40125,2.10058 -2.08964,1.40041 -3.37515,2.98678 -3.85652,4.75911 l 0,25.30537 -5.51401,0 0,-27.27465 -0.0985,-8.76334 4.72629,0 0.52514,4.66065 c 1.33473,-1.83797 3.13991,-3.21647 5.41555,-4.13551 2.2756,-0.91896 4.73721,-1.37846 7.38483,-1.3785 z"
         style="font-style:normal;font-variant:normal;font-weight:normal;font-stretch:normal;fill:#616161;fill-opacity:1;font-family:Oxygen;-inkscape-font-specification:Oxygen"
         id="path3551" />
      <path
         d="m 289.92148,149.81724 c 5.90783,5e-5 10.68883,1.48795 14.34299,4.46372 l -2.10058,4.4309 c -1.48794,-1.15965 -3.27671,-2.10053 -5.36631,-2.82265 -2.08966,-0.72203 -4.32699,-1.08306 -6.71199,-1.08311 -2.88832,5e-5 -5.4648,0.55801 -7.72946,1.6739 -2.2647,1.11597 -4.09176,2.63123 -5.48119,4.54577 -1.38945,1.91463 -2.43974,4.09178 -3.15086,6.53148 -0.71114,2.43976 -1.06671,5.04906 -1.0667,7.82792 -10e-6,2.14436 0.19692,4.17929 0.59079,6.1048 0.39385,1.92554 1.0448,3.76354 1.95288,5.514 0.90804,1.75049 2.02944,3.25481 3.3642,4.51296 1.33472,1.25816 3.01409,2.25922 5.0381,3.00316 2.02396,0.74396 4.29411,1.11594 6.81045,1.11593 2.31936,1e-5 4.49651,-0.37744 6.53148,-1.13234 2.03489,-0.75488 3.78537,-1.72312 5.25143,-2.9047 l 1.90365,4.75912 c -3.19466,2.84453 -7.91001,4.26679 -14.14606,4.26679 -3.76355,0 -7.14963,-0.6619 -10.15825,-1.9857 -3.00865,-1.3238 -5.47572,-3.13445 -7.40124,-5.43196 -1.92553,-2.29749 -3.39703,-4.9615 -4.41449,-7.99203 -1.01747,-3.03049 -1.5262,-6.29623 -1.5262,-9.79721 0,-3.63221 0.51967,-7.00188 1.55902,-10.10901 1.03934,-3.10707 2.53272,-5.81484 4.48013,-8.12332 1.9474,-2.3084 4.41448,-4.11358 7.40125,-5.41554 2.98673,-1.30187 6.32905,-1.95283 10.02696,-1.95288 z"
         style=""
         id="path3553" />
      <path
         d="m 335.93721,181.91665 c -3e-5,-1.99115 -0.19696,-3.82369 -0.59079,-5.4976 -0.39389,-1.67387 -1.00655,-3.1946 -1.838,-4.56219 -0.83151,-1.36753 -1.97479,-2.43423 -3.42985,-3.20009 -1.45511,-0.76581 -3.15635,-1.14872 -5.10374,-1.14875 -1.8599,3e-5 -3.52832,0.40483 -5.00527,1.21439 -1.47698,0.80963 -2.66402,1.90368 -3.56113,3.28215 -0.89713,1.37853 -1.57544,2.92114 -2.03493,4.62783 -0.45951,1.70674 -0.68926,3.50097 -0.68926,5.38272 0,1.8599 0.22975,3.62132 0.68926,5.28426 0.45949,1.66296 1.1378,3.16181 2.03493,4.49654 0.89711,1.33475 2.08962,2.39597 3.57754,3.18368 1.48789,0.78772 3.18366,1.18158 5.08733,1.18158 1.88174,0 3.53922,-0.39386 4.97245,-1.18158 1.43318,-0.78771 2.56552,-1.8544 3.39703,-3.20009 0.83144,-1.34567 1.45505,-2.84999 1.87082,-4.51295 0.41571,-1.66294 0.62358,-3.44624 0.62361,-5.3499 z m 5.71094,-0.0657 c -4e-5,2.51633 -0.36655,4.90136 -1.09952,7.15509 -0.73305,2.25375 -1.78881,4.25585 -3.16728,6.00633 -1.37853,1.75048 -3.13448,3.13445 -5.26784,4.15191 -2.13343,1.01747 -4.51298,1.5262 -7.13868,1.5262 -3.52285,0 -6.58619,-0.85336 -9.19001,-2.56007 -2.60385,-1.70672 -4.55125,-3.96046 -5.84222,-6.76123 -1.29099,-2.80075 -1.93647,-5.95161 -1.93647,-9.45258 0,-3.47906 0.65095,-6.63539 1.95288,-9.469 1.30191,-2.83356 3.26573,-5.12012 5.89145,-6.85969 2.62571,-1.7395 5.69998,-2.60927 9.22284,-2.60931 2.16619,4e-5 4.15189,0.32278 5.9571,0.96824 1.80515,0.64552 3.35323,1.54264 4.64424,2.69136 1.29094,1.14878 2.39046,2.51087 3.29855,4.08627 0.90803,1.57546 1.58087,3.29859 2.01853,5.16938 0.43758,1.87085 0.65639,3.85655 0.65643,5.9571 z"
         style=""
         id="path3555" />
      <path
         d="m 354.41569,150.30956 0,35.41438 c -10e-6,1.48792 0.0109,2.65855 0.0328,3.5119 0.0219,0.85336 0.0766,1.72313 0.1641,2.6093 0.0875,0.88619 0.21333,1.54809 0.37745,1.9857 0.1641,0.43763 0.39932,0.8479 0.70566,1.23081 0.30632,0.38292 0.67283,0.64002 1.09952,0.7713 0.42667,0.13129 0.95728,0.19694 1.59184,0.19693 0.26256,1e-5 1.2472,-0.0656 2.95394,-0.19693 l 0.36103,4.29962 c -1.61921,0.28445 -2.86642,0.42668 -3.74165,0.42668 -1.26911,0 -2.36315,-0.10394 -3.28214,-0.31181 -0.91902,-0.20787 -1.7122,-0.45403 -2.37956,-0.73848 -0.66738,-0.28445 -1.20893,-0.79866 -1.62466,-1.54261 -0.41575,-0.74395 -0.74943,-1.43867 -1.00106,-2.08416 -0.25164,-0.64549 -0.43215,-1.65201 -0.54155,-3.01958 -0.10941,-1.36755 -0.17506,-2.58742 -0.19693,-3.6596 -0.0219,-1.07215 -0.0328,-2.63664 -0.0328,-4.69347 l 0,-33.54355 z"
         style=""
         id="path3557" />
      <path
         d="m 392.78401,181.91665 c -3e-5,-1.99115 -0.19696,-3.82369 -0.59079,-5.4976 -0.39388,-1.67387 -1.00655,-3.1946 -1.838,-4.56219 -0.8315,-1.36753 -1.97479,-2.43423 -3.42984,-3.20009 -1.45511,-0.76581 -3.15636,-1.14872 -5.10374,-1.14875 -1.85991,3e-5 -3.52833,0.40483 -5.00528,1.21439 -1.47698,0.80963 -2.66402,1.90368 -3.56113,3.28215 -0.89713,1.37853 -1.57544,2.92114 -2.03493,4.62783 -0.45951,1.70674 -0.68926,3.50097 -0.68925,5.38272 -10e-6,1.8599 0.22974,3.62132 0.68925,5.28426 0.45949,1.66296 1.1378,3.16181 2.03493,4.49654 0.89711,1.33475 2.08962,2.39597 3.57754,3.18368 1.48789,0.78772 3.18367,1.18158 5.08733,1.18158 1.88174,0 3.53923,-0.39386 4.97245,-1.18158 1.43318,-0.78771 2.56552,-1.8544 3.39703,-3.20009 0.83145,-1.34567 1.45505,-2.84999 1.87082,-4.51295 0.41571,-1.66294 0.62358,-3.44624 0.62361,-5.3499 z m 5.71094,-0.0657 c -4e-5,2.51633 -0.36655,4.90136 -1.09952,7.15509 -0.73305,2.25375 -1.78881,4.25585 -3.16728,6.00633 -1.37853,1.75048 -3.13448,3.13445 -5.26784,4.15191 -2.13342,1.01747 -4.51298,1.5262 -7.13867,1.5262 -3.52286,0 -6.58619,-0.85336 -9.19002,-2.56007 -2.60384,-1.70672 -4.55125,-3.96046 -5.84222,-6.76123 -1.29098,-2.80075 -1.93647,-5.95161 -1.93647,-9.45258 0,-3.47906 0.65096,-6.63539 1.95288,-9.469 1.30191,-2.83356 3.26573,-5.12012 5.89145,-6.85969 2.62571,-1.7395 5.69998,-2.60927 9.22284,-2.60931 2.1662,4e-5 4.15189,0.32278 5.9571,0.96824 1.80515,0.64552 3.35323,1.54264 4.64424,2.69136 1.29094,1.14878 2.39046,2.51087 3.29856,4.08627 0.90802,1.57546 1.58086,3.29859 2.01852,5.16938 0.43758,1.87085 0.65639,3.85655 0.65643,5.9571 z"
         style=""
         id="path3559" />
      <path
         d="m 405.09206,199.87 0,-27.73416 c -1e-5,-0.96273 -0.0164,-2.36311 -0.0492,-4.20115 -0.0328,-1.83796 -0.0492,-3.20552 -0.0492,-4.10268 l 4.66065,0 0.42668,6.23608 c 2.27561,-4.15735 5.77657,-6.23604 10.50288,-6.23608 l 1.05028,0 0.39386,5.02169 -1.31286,0 c -3.21652,3e-5 -5.70548,0.93544 -7.46688,2.80623 -1.76143,1.87085 -2.64214,4.22853 -2.64213,7.07303 l 0,21.13704 z"
         style=""
         id="path3561" />
      <path
         d="m 436.92889,196.3581 c 1.79422,0 3.71428,-0.49232 5.76017,-1.47697 2.04585,-0.98464 3.62675,-2.26467 4.7427,-3.84011 l 0,-8.8618 c -2e-5,0.0219 -0.53064,0.10395 -1.59184,0.24616 -1.06125,0.14224 -1.62469,0.21336 -1.69031,0.21334 -2.12247,0.28447 -3.89483,0.57986 -5.31708,0.88618 -1.42228,0.30635 -2.66949,0.66191 -3.74165,1.0667 -1.07218,0.40481 -1.89818,0.89166 -2.47802,1.46055 -0.57985,0.56892 -1.00653,1.22535 -1.28004,1.96929 -0.27352,0.74397 -0.41027,1.63014 -0.41026,2.65854 -10e-6,1.92553 0.54154,3.35327 1.62466,4.2832 1.0831,0.92995 2.54365,1.39492 4.38167,1.39492 z m 10.66698,-0.42668 c -2.82267,3.17274 -6.57526,4.75911 -11.25777,4.75911 -1.5098,0 -2.91565,-0.2024 -4.21756,-0.6072 -1.30193,-0.40479 -2.45615,-1.00105 -3.46267,-1.78877 -1.00653,-0.78771 -1.79971,-1.81611 -2.37955,-3.08522 -0.57985,-1.26909 -0.86978,-2.72417 -0.86977,-4.36525 -10e-6,-4.17926 1.88176,-7.18789 5.64529,-9.02591 2.18809,-1.09403 5.73281,-2.01303 10.63416,-2.757 0.4376,-0.0656 1.14873,-0.16409 2.1334,-0.2954 l 3.61036,-0.42668 0,-4.10268 c -2e-5,-2.20995 -0.56893,-3.86744 -1.70672,-4.97246 -1.13783,-1.10495 -2.93207,-1.65745 -5.38272,-1.65748 -1.94742,3e-5 -3.93312,0.22431 -5.9571,0.67284 -2.024,0.44859 -3.79089,1.03391 -5.30067,1.75595 l -1.50979,-4.33244 c 1.42226,-0.78768 3.2712,-1.43864 5.54683,-1.95287 2.27561,-0.51417 4.63876,-0.77127 7.08944,-0.77131 8.46792,4e-5 12.70189,3.47911 12.70192,10.43723 l 0,26.45412 -4.49655,0 z"
         style=""
         id="path3563" />
      <path
         d="m 475.26438,195.80013 c 3.52281,1e-5 6.2087,-1.31285 8.05767,-3.93858 1.84891,-2.6257 2.77338,-5.98443 2.77341,-10.07619 -3e-5,-1.96927 -0.21336,-3.78539 -0.64001,-5.44837 -0.42671,-1.66293 -1.06673,-3.13989 -1.92006,-4.4309 -0.85339,-1.29094 -1.9912,-2.29747 -3.41344,-3.01957 -1.42228,-0.72204 -3.06335,-1.08308 -4.92322,-1.08311 -1.75049,3e-5 -3.29857,0.40483 -4.64424,1.21439 -1.34569,0.80963 -2.39051,1.89274 -3.13445,3.24933 -0.74396,1.35665 -1.30193,2.8172 -1.67389,4.38167 -0.37199,1.56451 -0.55798,3.21105 -0.55797,4.93963 -10e-6,1.88178 0.18051,3.63773 0.54156,5.26785 0.36102,1.63014 0.91899,3.12899 1.67389,4.49654 0.75488,1.36757 1.80517,2.45068 3.15086,3.24933 1.34567,0.79866 2.91563,1.19799 4.70989,1.19798 z m -0.36104,4.85758 c -4.77007,0 -8.52812,-1.77236 -11.27418,-5.31708 -2.74607,-3.54471 -4.1191,-8.18348 -4.1191,-13.91631 0,-3.39153 0.62361,-6.48768 1.87083,-9.28848 1.24721,-2.80073 3.03598,-5.03259 5.36631,-6.69558 2.33031,-1.66292 4.98338,-2.49439 7.95921,-2.49443 2.42877,4e-5 4.69892,0.558 6.81046,1.6739 2.11149,1.11596 3.62674,2.61481 4.54577,4.49654 l 0,-18.15028 5.51401,-0.65643 0,49.56044 -4.8904,0 -0.68925,-5.6453 c -1.0722,1.92553 -2.58745,3.47908 -4.54578,4.66065 -1.95837,1.18157 -4.14099,1.77236 -6.54788,1.77236 z"
         style=""
         id="path3565" />
      <path
         d="m 525.90794,181.91665 c -3e-5,-1.99115 -0.19696,-3.82369 -0.59079,-5.4976 -0.39388,-1.67387 -1.00655,-3.1946 -1.838,-4.56219 -0.8315,-1.36753 -1.97478,-2.43423 -3.42984,-3.20009 -1.45511,-0.76581 -3.15636,-1.14872 -5.10374,-1.14875 -1.8599,3e-5 -3.52833,0.40483 -5.00528,1.21439 -1.47698,0.80963 -2.66402,1.90368 -3.56113,3.28215 -0.89713,1.37853 -1.57544,2.92114 -2.03493,4.62783 -0.45951,1.70674 -0.68926,3.50097 -0.68925,5.38272 -1e-5,1.8599 0.22974,3.62132 0.68925,5.28426 0.45949,1.66296 1.1378,3.16181 2.03493,4.49654 0.89711,1.33475 2.08962,2.39597 3.57754,3.18368 1.48789,0.78772 3.18367,1.18158 5.08733,1.18158 1.88174,0 3.53923,-0.39386 4.97246,-1.18158 1.43317,-0.78771 2.56551,-1.8544 3.39702,-3.20009 0.83145,-1.34567 1.45506,-2.84999 1.87082,-4.51295 0.41571,-1.66294 0.62358,-3.44624 0.62361,-5.3499 z m 5.71094,-0.0657 c -4e-5,2.51633 -0.36654,4.90136 -1.09952,7.15509 -0.73305,2.25375 -1.7888,4.25585 -3.16727,6.00633 -1.37854,1.75048 -3.13448,3.13445 -5.26785,4.15191 -2.13342,1.01747 -4.51298,1.5262 -7.13867,1.5262 -3.52286,0 -6.58619,-0.85336 -9.19002,-2.56007 -2.60384,-1.70672 -4.55125,-3.96046 -5.84222,-6.76123 -1.29098,-2.80075 -1.93647,-5.95161 -1.93647,-9.45258 0,-3.47906 0.65096,-6.63539 1.95288,-9.469 1.30191,-2.83356 3.26573,-5.12012 5.89146,-6.85969 2.6257,-1.7395 5.69998,-2.60927 9.22283,-2.60931 2.1662,4e-5 4.1519,0.32278 5.9571,0.96824 1.80515,0.64552 3.35323,1.54264 4.64424,2.69136 1.29095,1.14878 2.39046,2.51087 3.29856,4.08627 0.90802,1.57546 1.58086,3.29859 2.01852,5.16938 0.43758,1.87085 0.65639,3.85655 0.65643,5.9571 z"
         style=""
         id="path3567" />
    </g>
    <path
       sodipodi:type="arc"
       style="color:#000000;fill:none;stroke:#b50404;stroke-width:38.48910522;stroke-linecap:butt;stroke-linejoin:miter;stroke-miterlimit:4;stroke-opacity:1;stroke-dasharray:none;stroke-dashoffset:0;marker:none;visibility:visible;display:inline;overflow:visible;enable-background:accumulate"
       id="path5450"
       sodipodi:cx="-1351.5841"
       sodipodi:cy="-2836.7251"
       sodipodi:rx="70.710678"
       sodipodi:ry="70.710678"
       d="m -1280.8734,-2836.7251 c 0,39.0524 -31.6583,70.7107 -70.7107,70.7107 -39.0524,0 -70.7107,-31.6583 -70.7107,-70.7107 0,-39.0524 31.6583,-70.7107 70.7107,-70.7107 39.0524,0 70.7107,31.6583 70.7107,70.7107 z"
       transform="matrix(0.22212057,0,0,0.22212057,360.60954,803.69341)"
       inkscape:export-filename="C:\Data\Development\OpenColorado\UX\Resources\icon_400.png"
       inkscape:export-xdpi="475.63068"
       inkscape:export-ydpi="475.63068" />
    <path
       style="color:#000000;fill:none;stroke:#000000;stroke-width:8.54922199;stroke-linecap:butt;stroke-linejoin:miter;stroke-miterlimit:4;stroke-opacity:1;stroke-dasharray:none;stroke-dashoffset:0;marker:none;visibility:visible;display:inline;overflow:visible;enable-background:accumulate"
       d="m 90.894428,187.72252 c -5.38327,11.36463 -16.95795,19.22473 -30.3685,19.22473 -18.54821,0 -33.58448,-15.03632 -33.58448,-33.58452 0,-18.54821 15.03627,-33.58452 33.58448,-33.58452 13.40238,0 24.97114,7.85051 30.35866,19.20392"
       id="path5508"
       inkscape:connector-curvature="0"
       inkscape:export-filename="C:\Data\Development\OpenColorado\UX\Resources\icon_400.png"
       inkscape:export-xdpi="475.63068"
       inkscape:export-ydpi="475.63068" />
    <path
       style="fill:#000000;stroke:#000000;stroke-width:0.2375062px;stroke-linecap:butt;stroke-linejoin:miter;stroke-opacity:1"
       d="m 80.220928,159.02758 15.71275,-9.84969 -1.64163,14.31846 z"
       id="path5741"
       inkscape:connector-curvature="0"
       sodipodi:nodetypes="cccc"
       inkscape:export-filename="F:\Projects\Development\OpenColorado\Skin\Resources\logo.png"
       inkscape:export-xdpi="22.603834"
       inkscape:export-ydpi="22.603834" />
  </g>
</svg>
